<svg width="141" height="35" viewBox="0 0 141 35" fill="none" xmlns="http://www.w3.org/2000/svg">
<g clip-path="url(#clip0_819_2115)">
<path d="M11.596 1.95315L13.2683 2.90501L14.9406 3.85686L16.5945 2.88028L18.2485 1.90371L16.5762 0.951853L14.9038 0L13.2499 0.976576L11.596 1.95315ZM6.6954 14.5436L6.70765 16.472L6.7199 18.4004L6.73215 20.3289L6.7444 22.2573L8.41672 23.2091L10.089 24.161L11.7614 25.1128L13.4337 26.0647L15.106 27.0166L16.7599 26.04L18.4139 25.0634L20.0678 24.0868L21.7218 23.1102L23.3757 22.1337L23.3634 20.2052L23.3512 18.2768L23.3389 16.3484L23.3267 14.42L24.9806 13.4434L26.6346 12.4668L26.6468 14.3952L26.6591 16.3237L26.6713 18.2521L26.6836 20.1805L26.6958 22.109L26.7081 24.0374L25.0541 25.014L23.4002 25.9905L21.7463 26.9671L20.0923 27.9437L18.4384 28.9203L16.7844 29.8968L15.1305 30.8734L13.4582 29.9216L11.7859 28.9697L10.1135 28.0179L8.45347 27.0784L6.78116 26.1265L5.10884 25.1747L3.43652 24.2228L3.42427 22.2944L3.41202 20.3659L3.39977 18.4375L3.38752 16.5091L3.36914 14.5683L3.35689 12.6399L5.02308 13.5855L6.6954 14.5436ZM3.46715 28.0797L5.13947 29.0315L6.81178 29.9834L8.4841 30.9352L10.1564 31.8871L11.8287 32.8389L13.5011 33.7908L15.1734 34.7426L16.8273 33.7661L18.4813 32.7895L20.1352 31.8129L21.7891 30.8363L23.4431 29.8598L25.097 28.8832L26.751 27.9066L28.4049 26.93L30.0588 25.9534L30.0466 24.025L30.0343 22.0966L30.0221 20.1682L30.0098 18.2397L29.9976 16.3113L29.9853 14.3829L29.9731 12.4544L29.9608 10.526L29.9486 8.59758L28.2763 7.64573L26.6223 8.62231L24.9684 9.59888L23.3144 10.5755L21.6605 11.552L19.9882 10.6002L18.3159 9.64833L19.9698 8.67175L21.6237 7.69518L23.2777 6.7186L24.9316 5.74202L23.2593 4.79017L21.587 3.83832L19.933 4.81489L18.2791 5.79147L16.6252 6.76805L14.9712 7.74462L13.2928 6.76805L11.6205 5.81619L9.94815 4.86434L8.27583 3.91249L6.62189 4.88906L4.96795 5.86564L6.64027 6.81749L8.31258 7.76935L9.9849 8.7212L11.6572 9.67305L13.3295 10.6249L15.0019 11.5768L16.6742 12.5286L18.3465 13.4805L20.0188 14.4323L20.0311 16.3607L20.0433 18.2892L20.0556 20.2176L18.4016 21.1942L16.7477 22.1708L15.0937 23.1473L13.4214 22.1955L11.7369 21.2622L10.0645 20.3103L10.0523 18.3819L10.04 16.4535L11.7123 17.4053L13.3847 18.3572L15.057 19.309L16.7109 18.3324L16.6987 16.404L15.0264 15.4522L13.354 14.5003L11.6817 13.5361L10.0094 12.5842L8.33709 11.6324L6.66477 10.6805L4.99245 9.72868L3.32626 8.77683L1.65394 7.82497L0 8.80155L0.0122514 10.73L0.0245028 12.6584L0.0367542 14.5868L0.0490056 16.5153L0.0612571 18.4437L0.0735085 20.3721L0.0980113 22.3129L0.110263 24.2413L0.122514 26.1698L1.79483 27.1216L3.46715 28.0797Z" fill="#E5A40F"/>
</g>
<g clip-path="url(#clip1_819_2115)">
<path d="M40.0662 27.5352H35.543L42.4351 7.44727H47.8747L54.7571 27.5352H50.2338L45.2329 12.0377H45.0769L40.0662 27.5352ZM39.7835 19.6393H50.4678V22.9546H39.7835V19.6393ZM57.0821 27.5352V12.4692H61.1082V15.0979H61.2642C61.5372 14.1628 61.9953 13.4567 62.6387 12.9793C63.2821 12.4954 64.023 12.2534 64.8613 12.2534C65.0693 12.2534 65.2935 12.2665 65.534 12.2927C65.7745 12.3188 65.9857 12.3548 66.1677 12.4006V16.1082C65.9727 16.0493 65.703 15.997 65.3585 15.9513C65.0141 15.9055 64.6989 15.8826 64.4129 15.8826C63.802 15.8826 63.2561 16.0167 62.7752 16.2848C62.3008 16.5463 61.9238 16.9125 61.6444 17.3833C61.3714 17.8541 61.2349 18.3969 61.2349 19.0115V27.5352H57.0821ZM68.3147 27.5352V12.4692H72.2726V15.1273H72.4481C72.76 14.2446 73.2799 13.5482 74.0078 13.0381C74.7357 12.5281 75.6066 12.2731 76.6204 12.2731C77.6472 12.2731 78.5213 12.5314 79.2427 13.048C79.9641 13.558 80.445 14.2511 80.6855 15.1273H80.8415C81.1469 14.2642 81.6993 13.5744 82.4987 13.0577C83.3046 12.5346 84.2567 12.2731 85.355 12.2731C86.7523 12.2731 87.8863 12.721 88.7572 13.6169C89.6346 14.5061 90.0733 15.7682 90.0733 17.4029V27.5352H85.9301V18.2269C85.9301 17.3899 85.7092 16.7621 85.2672 16.3436C84.8253 15.9251 84.2729 15.7159 83.61 15.7159C82.8562 15.7159 82.268 15.9578 81.8456 16.4417C81.4231 16.919 81.2119 17.5501 81.2119 18.3348V27.5352H77.1858V18.1386C77.1858 17.3997 76.9746 16.8112 76.5522 16.373C76.1362 15.9349 75.5871 15.7159 74.9047 15.7159C74.4433 15.7159 74.0273 15.8336 73.6569 16.069C73.2929 16.2978 73.0037 16.6215 72.7892 17.04C72.5748 17.452 72.4676 17.9359 72.4676 18.4917V27.5352H68.3147ZM97.6235 27.8196C96.668 27.8196 95.8165 27.6529 95.0695 27.3194C94.3219 26.9793 93.7307 26.4791 93.2951 25.8187C92.8659 25.1517 92.6516 24.3212 92.6516 23.3273C92.6516 22.4903 92.8042 21.7874 93.1098 21.2185C93.4155 20.6495 93.8315 20.1918 94.3578 19.8452C94.8842 19.4987 95.4818 19.2371 96.1512 19.0606C96.8274 18.884 97.5359 18.7598 98.2765 18.6879C99.1476 18.5963 99.8492 18.5113 100.382 18.4328C100.915 18.3478 101.302 18.2236 101.542 18.0601C101.783 17.8967 101.903 17.6547 101.903 17.3343V17.2754C101.903 16.6542 101.708 16.1736 101.318 15.8336C100.935 15.4935 100.389 15.3235 99.6803 15.3235C98.9327 15.3235 98.3383 15.4903 97.8964 15.8238C97.4546 16.1507 97.1621 16.5627 97.0191 17.0596L93.1779 16.7458C93.3733 15.8303 93.7565 15.0391 94.3283 14.3721C94.9005 13.6986 95.638 13.182 96.5413 12.8223C97.4514 12.4562 98.5041 12.2731 99.6998 12.2731C100.532 12.2731 101.328 12.3712 102.088 12.5673C102.855 12.7635 103.534 13.0676 104.126 13.4795C104.723 13.8915 105.195 14.4212 105.539 15.0685C105.884 15.7093 106.056 16.4777 106.056 17.3735V27.5352H102.118V25.446H102C101.76 25.9167 101.438 26.332 101.035 26.6916C100.633 27.0447 100.148 27.3226 99.5826 27.5253C99.0172 27.7215 98.3642 27.8196 97.6235 27.8196ZM98.8129 24.9359C99.4237 24.9359 99.9632 24.8149 100.431 24.573C100.899 24.3245 101.266 23.991 101.533 23.5725C101.799 23.154 101.932 22.6799 101.932 22.1503V20.5515C101.802 20.6365 101.624 20.7149 101.396 20.7869C101.175 20.8523 100.925 20.9144 100.645 20.9732C100.366 21.0256 100.086 21.0746 99.807 21.1204C99.5277 21.1596 99.2743 21.1956 99.0468 21.2283C98.559 21.3002 98.1335 21.4146 97.7697 21.5716C97.4055 21.7285 97.123 21.941 96.9214 22.2091C96.7203 22.4707 96.6194 22.7977 96.6194 23.19C96.6194 23.7589 96.8243 24.1937 97.2334 24.4945C97.6494 24.7887 98.1757 24.9359 98.8129 24.9359ZM114.795 27.7803C113.658 27.7803 112.628 27.4861 111.705 26.8976C110.789 26.3026 110.061 25.4296 109.521 24.2787C108.988 23.1213 108.722 21.7023 108.722 20.0218C108.722 18.2955 108.998 16.8602 109.551 15.7159C110.103 14.565 110.837 13.7051 111.754 13.1362C112.676 12.5608 113.687 12.2731 114.785 12.2731C115.624 12.2731 116.322 12.4169 116.881 12.7046C117.447 12.9858 117.902 13.3389 118.246 13.764C118.597 14.1824 118.864 14.5944 119.046 14.9999H119.172V7.44727H123.316V27.5352H119.221V25.1223H119.046C118.85 25.5408 118.574 25.956 118.217 26.368C117.866 26.7734 117.408 27.1101 116.842 27.3782C116.284 27.6463 115.601 27.7803 114.795 27.7803ZM116.111 24.4553C116.78 24.4553 117.346 24.2722 117.807 23.906C118.276 23.5333 118.633 23.0134 118.88 22.3464C119.133 21.6795 119.26 20.898 119.26 20.0022C119.26 19.1063 119.137 18.3282 118.89 17.6678C118.642 17.0073 118.285 16.4973 117.817 16.1376C117.35 15.778 116.78 15.5982 116.111 15.5982C115.429 15.5982 114.854 15.7845 114.386 16.1572C113.918 16.5299 113.564 17.0466 113.323 17.707C113.083 18.3674 112.963 19.1325 112.963 20.0022C112.963 20.8784 113.083 21.6533 113.323 22.3268C113.57 22.9938 113.924 23.5169 114.386 23.8962C114.854 24.2689 115.429 24.4553 116.111 24.4553ZM133.495 27.8294C131.981 27.8294 130.672 27.5057 129.567 26.8584C128.468 26.2045 127.62 25.2955 127.022 24.1316C126.424 22.9611 126.125 21.6043 126.125 20.0611C126.125 18.5048 126.424 17.1446 127.022 15.9807C127.62 14.8102 128.468 13.9013 129.567 13.2539C130.672 12.6 131.981 12.2731 133.495 12.2731C135.009 12.2731 136.315 12.6 137.414 13.2539C138.519 13.9013 139.37 14.8102 139.968 15.9807C140.566 17.1446 140.865 18.5048 140.865 20.0611C140.865 21.6043 140.566 22.9611 139.968 24.1316C139.37 25.2955 138.519 26.2045 137.414 26.8584C136.315 27.5057 135.009 27.8294 133.495 27.8294ZM133.515 24.5926C134.204 24.5926 134.779 24.3964 135.24 24.0041C135.701 23.6052 136.049 23.0624 136.283 22.3758C136.523 21.6893 136.644 20.9079 136.644 20.0316C136.644 19.1554 136.523 18.374 136.283 17.6874C136.049 17.0008 135.701 16.458 135.24 16.0592C134.779 15.6603 134.204 15.4609 133.515 15.4609C132.819 15.4609 132.234 15.6603 131.76 16.0592C131.292 16.458 130.938 17.0008 130.697 17.6874C130.464 18.374 130.346 19.1554 130.346 20.0316C130.346 20.9079 130.464 21.6893 130.697 22.3758C130.938 23.0624 131.292 23.6052 131.76 24.0041C132.234 24.3964 132.819 24.5926 133.515 24.5926Z" fill="white"/>
</g>
<defs>
<clipPath id="clip0_819_2115">
<rect width="30.0711" height="34.7488" fill="white"/>
</clipPath>
<clipPath id="clip1_819_2115">
<rect width="105.583" height="20.7156" fill="white" transform="translate(35.418 7.35059)"/>
</clipPath>
</defs>
</svg>
